<svg xmlns="http://www.w3.org/2000/svg" xmlns:xlink="http://www.w3.org/1999/xlink" width="18" height="16" viewBox="0 0 18 16">
    <defs>
    <path id="5n0ga" d="M1541.608 147.95h-7.785a1.666 1.666 0 0 1-1.67-1.505l-2.358-7.76h-1.932a.85.85 0 0 1-.856-.843c0-.465.383-.842.856-.842h2.57c.379 0 .713.243.821.6l2.57 8.46a.81.81 0 0 1 .036.241l7.748-.036c0-.078-.027-.118-.004-.193l1.404-4.86h-6.577a.85.85 0 0 1-.857-.844.85.85 0 0 1 .857-.842h7.71c.269 0 .521.125.683.336.162.21.215.483.141.736l-1.687 5.84a1.666 1.666 0 0 1-1.67 1.511zm-10.318 3.368c0-.93.767-1.685 1.714-1.685.946 0 1.713.755 1.713 1.685s-.767 1.685-1.713 1.685c-.947 0-1.714-.755-1.714-1.685zm9.425 0c0-.93.766-1.685 1.713-1.685.946 0 1.713.755 1.713 1.685s-.767 1.685-1.713 1.685c-.947 0-1.713-.755-1.713-1.685z">
    </path>
    </defs><g><g transform="translate(-1527 -137)"><use xlink:href="#5n0ga"></use></g></g>
</svg>