<?xml version="1.0" encoding="iso-8859-1"?>
<!-- Generator: Adobe Illustrator 19.0.0, SVG Export Plug-In . SVG Version: 6.00 Build 0)  -->
<svg version="1.1" id="Capa_1" xmlns="http://www.w3.org/2000/svg" xmlns:xlink="http://www.w3.org/1999/xlink" x="0px" y="0px"
	 viewBox="0 0 508.034 508.034" style="enable-background:new 0 0 508.034 508.034;" xml:space="preserve">
<g>
	<g>
		<path d="M254,0.017c-94.8,0-172.1,77.2-172.1,172.1v8.2h41.4c4.3,68.4,61.2,122.9,130.7,122.9c51.7,0,96.4-30.2,117.7-73.7H426
			v-57.4C426,77.217,348.8,0.017,254,0.017z M361,213.017h-59.9c-3.2-14-15.7-24.6-30.7-24.6c-17.4,0-31.5,14.1-31.5,31.5
			c0,17.4,14.1,31.5,31.5,31.5c14.1,0,25.9-9.3,29.9-22.1h52.9c-19.9,34.2-56.8,57.4-99.2,57.4c-63.2,0-114.7-51.5-114.7-114.7
			s51.4-114.6,114.7-114.6s114.7,51.5,114.7,114.7C368.7,186.517,365.9,200.317,361,213.017z M285.5,220.017
			c0,8.4-6.8,15.1-15.1,15.1c-8.3,0-15.1-6.8-15.1-15.1s6.8-15.1,15.1-15.1C278.7,204.917,285.5,211.617,285.5,220.017z
			 M409.7,213.117h-31.2c4.3-12.9,6.6-26.7,6.6-41c0-72.3-58.8-131.1-131.1-131.1c-69.5,0-126.4,54.4-130.7,122.9H98.5
			c4.3-82.1,72.4-147.5,155.5-147.5c85.8,0,155.7,69.8,155.7,155.7V213.117z"/>
	</g>
</g>
<g>
	<g>
		<path d="M372.5,285.217c0,0-45.2,50.8-118.5,50.8c-72.7,0-118.5-50.8-118.5-50.8S0,339.917,0,508.017h508
			C510.5,341.617,372.5,285.217,372.5,285.217z M16.5,491.617c2.8-78.6,46.6-149,116.1-186.5c33.3,30.5,76.2,47.2,121.4,47.2
			s88-16.7,121.4-47.2c69.4,37.5,113.2,107.9,116.1,186.5H16.5z"/>
	</g>
</g>
<g>
	<g>
		<rect x="245.8" y="368.717" width="16.4" height="16.4"/>
	</g>
</g>
<g>
	<g>
		<rect x="245.8" y="409.717" width="16.4" height="16.4"/>
	</g>
</g>
<g>
	<g>
		<rect x="245.8" y="450.617" width="16.4" height="16.4"/>
	</g>
</g>

</svg>
